<svg xmlns="http://www.w3.org/2000/svg" version="1.1" xmlns:xlink="http://www.w3.org/1999/xlink" xmlns:svgjs="http://svgjs.dev/svgjs" width="1500" height="287" viewBox="0 0 1500 287"><g transform="matrix(1,0,0,1,-0.9090909090909918,-0.04443764502946124)"><svg viewBox="0 0 396 76" data-background-color="#ffffff" preserveAspectRatio="xMidYMid meet" height="287" width="1500" xmlns="http://www.w3.org/2000/svg" xmlns:xlink="http://www.w3.org/1999/xlink"><g id="tight-bounds" transform="matrix(1,0,0,1,0.2400000000000091,0.011767460007803265)"><svg viewBox="0 0 395.52 75.9764650799844" height="75.9764650799844" width="395.52"><g><svg viewBox="0 0 395.52 75.9764650799844" height="75.9764650799844" width="395.52"><g><svg viewBox="0 0 395.52 75.9764650799844" height="75.9764650799844" width="395.52"><g id="textblocktransform"><svg viewBox="0 0 395.52 75.9764650799844" height="75.9764650799844" width="395.52" id="textblock"><g><svg viewBox="0 0 395.52 75.9764650799844" height="75.9764650799844" width="395.52"><g transform="matrix(1,0,0,1,0,0)"><svg width="395.52" viewBox="1.98 -35.55 187.70000000000002 36.059999999999995" height="75.9764650799844" data-palette-color="#f5ba41"><path d="M18.82 0L1.98 0 1.98-3.08 5.96-3.76 5.96-31.76 1.98-32.45 1.98-35.55 5.96-35.55 17.31-35.55Q22.88-35.55 26.01-33.14 29.15-30.74 29.15-25.93L29.15-25.93Q29.15-23.56 27.65-21.69 26.15-19.82 23.68-18.92L23.68-18.92Q25.83-18.48 27.37-17.2 28.91-15.92 29.75-14.07 30.59-12.23 30.59-10.03L30.59-10.03Q30.59-5.15 27.42-2.58 24.24 0 18.82 0L18.82 0ZM10.77-16.67L10.77-3.76 18.82-3.76Q22.12-3.76 23.94-5.38 25.76-7.01 25.76-9.99L25.76-9.99Q25.76-12.08 25.09-13.57 24.41-15.06 23.03-15.87 21.66-16.67 19.56-16.67L19.56-16.67 10.77-16.67ZM10.77-31.76L10.77-20.43 18.55-20.43Q21.14-20.43 22.74-21.94 24.34-23.44 24.34-26.03L24.34-26.03Q24.34-28.91 22.53-30.33 20.73-31.76 17.31-31.76L17.31-31.76 10.77-31.76ZM42.62 0.51L42.62 0.51Q38.5 0.51 36.35-1.5 34.2-3.52 34.2-7.18L34.2-7.18Q34.2-9.69 35.58-11.56 36.96-13.43 39.57-14.47 42.19-15.5 45.82-15.5L45.82-15.5 50.53-15.5 50.53-18.09Q50.53-20.48 49.08-21.8 47.63-23.12 44.99-23.12L44.99-23.12Q43.33-23.12 42.11-22.72 40.89-22.31 39.89-21.61L39.89-21.61 39.38-17.92 35.67-17.92 35.67-23.97Q37.45-25.42 39.82-26.16 42.19-26.9 45.07-26.9L45.07-26.9Q49.88-26.9 52.61-24.61 55.34-22.31 55.34-18.04L55.34-18.04 55.34-5.32Q55.34-4.81 55.36-4.32 55.37-3.83 55.42-3.34L55.42-3.34 57.98-3.08 57.98 0 51.07 0Q50.85-1.07 50.73-1.93 50.61-2.78 50.56-3.64L50.56-3.64Q49.17-1.86 47.08-0.67 44.99 0.51 42.62 0.51ZM43.33-3.52L43.33-3.52Q45.73-3.52 47.7-4.66 49.68-5.81 50.53-7.42L50.53-7.42 50.53-12.21 45.65-12.21Q42.33-12.21 40.67-10.62 39.01-9.03 39.01-7.08L39.01-7.08Q39.01-5.35 40.09-4.43 41.16-3.52 43.33-3.52ZM74.43 0L61.66 0 61.66-3.08 65.64-3.76 65.64-22.63 61.66-23.32 61.66-26.42 69.94-26.42 70.36-23.05 70.41-22.58Q71.53-24.61 73.18-25.76 74.82-26.9 76.95-26.9L76.95-26.9Q77.7-26.9 78.5-26.77 79.29-26.64 79.63-26.51L79.63-26.51 79-22.05 75.65-22.24Q73.75-22.36 72.46-21.37 71.16-20.39 70.45-18.73L70.45-18.73 70.45-3.76 74.43-3.08 74.43 0ZM93.25 0.51L93.25 0.51Q90.59 0.51 88.27-0.02 85.95-0.56 83.34-1.68L83.34-1.68 83.29-7.96 86.93-7.96 87.83-4.17Q89.2-3.61 90.48-3.36 91.76-3.1 93.25-3.1L93.25-3.1Q96.18-3.1 97.45-4.22 98.72-5.35 98.72-7.01L98.72-7.01Q98.72-8.57 97.44-9.66 96.16-10.74 92.79-11.5L92.79-11.5Q88.01-12.6 85.75-14.44 83.49-16.28 83.49-19.36L83.49-19.36Q83.49-21.51 84.73-23.21 85.98-24.9 88.2-25.9 90.42-26.9 93.38-26.9L93.38-26.9Q96.38-26.9 98.52-26.22 100.65-25.54 102.24-24.39L102.24-24.39 102.48-18.36 98.87-18.36 98.09-21.88Q97.23-22.51 96.06-22.85 94.89-23.19 93.38-23.19L93.38-23.19Q91.13-23.19 89.73-22.14 88.32-21.09 88.32-19.51L88.32-19.51Q88.32-18.58 88.73-17.9 89.13-17.21 90.28-16.66 91.42-16.11 93.64-15.58L93.64-15.58Q99.16-14.28 101.35-12.28 103.53-10.28 103.53-7.35L103.53-7.35Q103.53-4 101.05-1.75 98.58 0.51 93.25 0.51ZM116.05 0.51L116.05 0.51Q111.93 0.51 109.78-1.5 107.63-3.52 107.63-7.18L107.63-7.18Q107.63-9.69 109.01-11.56 110.39-13.43 113-14.47 115.62-15.5 119.25-15.5L119.25-15.5 123.96-15.5 123.96-18.09Q123.96-20.48 122.51-21.8 121.06-23.12 118.42-23.12L118.42-23.12Q116.76-23.12 115.54-22.72 114.32-22.31 113.32-21.61L113.32-21.61 112.81-17.92 109.1-17.92 109.1-23.97Q110.88-25.42 113.25-26.16 115.62-26.9 118.5-26.9L118.5-26.9Q123.31-26.9 126.04-24.61 128.77-22.31 128.77-18.04L128.77-18.04 128.77-5.32Q128.77-4.81 128.79-4.32 128.8-3.83 128.85-3.34L128.85-3.34 131.41-3.08 131.41 0 124.5 0Q124.28-1.07 124.16-1.93 124.04-2.78 123.99-3.64L123.99-3.64Q122.6-1.86 120.51-0.67 118.42 0.51 116.05 0.51ZM116.76-3.52L116.76-3.52Q119.16-3.52 121.13-4.66 123.11-5.81 123.96-7.42L123.96-7.42 123.96-12.21 119.08-12.21Q115.76-12.21 114.1-10.62 112.44-9.03 112.44-7.08L112.44-7.08Q112.44-5.35 113.52-4.43 114.59-3.52 116.76-3.52ZM147.91 0L135.14 0 135.14-3.08 139.12-3.76 139.12-22.63 135.14-23.32 135.14-26.42 143.42-26.42 143.76-22.49Q145.08-24.58 147.07-25.74 149.06-26.9 151.6-26.9L151.6-26.9Q155.87-26.9 158.22-24.4 160.56-21.9 160.56-16.67L160.56-16.67 160.56-3.76 164.54-3.08 164.54 0 151.77 0 151.77-3.08 155.75-3.76 155.75-16.58Q155.75-20.07 154.37-21.53 152.99-23 150.16-23L150.16-23Q148.08-23 146.48-22 144.88-21 143.93-19.26L143.93-19.26 143.93-3.76 147.91-3.08 147.91 0ZM179.6 0.51L179.6 0.51Q175.94 0.51 173.23-1.16 170.52-2.83 169.04-5.81 167.56-8.79 167.56-12.7L167.56-12.7 167.56-13.77Q167.56-17.53 169.11-20.5 170.66-23.46 173.24-25.18 175.82-26.9 178.87-26.9L178.87-26.9Q182.43-26.9 184.84-25.44 187.24-23.97 188.46-21.33 189.68-18.68 189.68-15.09L189.68-15.09 189.68-12.08 172.54-12.08 172.47-11.96Q172.52-9.42 173.36-7.46 174.2-5.49 175.79-4.37 177.38-3.25 179.6-3.25L179.6-3.25Q182.04-3.25 183.88-3.94 185.73-4.64 187.07-5.86L187.07-5.86 188.95-2.73Q187.53-1.37 185.2-0.43 182.87 0.51 179.6 0.51ZM172.64-15.97L172.69-15.84 184.87-15.84 184.87-16.48Q184.87-18.38 184.2-19.89 183.53-21.39 182.2-22.25 180.87-23.12 178.87-23.12L178.87-23.12Q177.26-23.12 175.94-22.18 174.62-21.24 173.76-19.63 172.91-18.02 172.64-15.97L172.64-15.97Z" opacity="1" transform="matrix(1,0,0,1,0,0)" fill="#f5ba41" class="wordmark-text-0" data-fill-palette-color="primary" id="text-0"></path></svg></g></svg></g></svg></g></svg></g><g></g></svg></g><defs></defs></svg><rect width="395.52" height="75.9764650799844" fill="none" stroke="none" visibility="hidden"></rect></g></svg></g></svg>