<svg width="14" height="16" viewBox="0 0 14 16" fill="none" xmlns="http://www.w3.org/2000/svg">
<path id="Vector" d="M6.6377 9.76692C5.65641 8.56167 5.11185 7.20902 4.83599 6.44623L4.64519 5.80312C4.77627 5.70929 5.77553 4.99547 6.22797 4.59005C6.79644 4.08103 6.25708 3.40867 6.25708 3.40867C6.25708 3.40867 4.80051 1.21448 4.45766 0.768351C4.11491 0.321712 3.59539 0.426399 3.59539 0.426399C2.60699 0.814728 1.60143 1.12281 1.06999 3.47389C0.621305 5.68496 1.83939 8.30496 3.29814 10.4375C4.71367 12.7989 6.80651 15.302 9.22061 15.7872C11.5933 16.2103 12.2673 15.4032 13.0088 14.643C13.0088 14.643 13.307 14.2053 13.0289 13.7157C12.7504 13.2263 11.2934 11.0319 11.2934 11.0319C11.2934 11.0319 10.8835 10.2738 10.1935 10.6005C9.67926 10.8443 8.72692 11.4251 8.49725 11.5661C8.4975 11.5669 7.29989 10.5803 6.6377 9.76692Z" fill="white"/>
</svg>
