<svg width="12" height="11" viewBox="0 0 12 11" fill="none" xmlns="http://www.w3.org/2000/svg">
<g id="Vector">
<path d="M2.55224 11.0001H0.237973V3.28588H2.55224V11.0001ZM11.0379 11.0001H8.72361V6.87916C8.72361 5.80535 8.34099 5.27075 7.58268 5.27075C6.98174 5.27075 6.60066 5.57006 6.40935 6.16946C6.40935 7.14299 6.40935 11.0001 6.40935 11.0001H4.09508C4.09508 11.0001 4.12594 4.0573 4.09508 3.28588H5.92181L6.06298 4.82873H6.11081C6.58523 4.0573 7.34354 3.53428 8.38342 3.53428C9.17412 3.53428 9.81363 3.75414 10.3019 4.30647C10.7933 4.85958 11.0379 5.60169 11.0379 6.64388V11.0001Z" fill="white"/>
<path d="M1.39511 2.51446C2.05547 2.51446 2.59081 1.99639 2.59081 1.35733C2.59081 0.718261 2.05547 0.200195 1.39511 0.200195C0.734737 0.200195 0.199402 0.718261 0.199402 1.35733C0.199402 1.99639 0.734737 2.51446 1.39511 2.51446Z" fill="white"/>
</g>
</svg>
