<svg width="13" height="12" viewBox="0 0 13 12" fill="none" xmlns="http://www.w3.org/2000/svg">
<g id="5296514_bird_tweet_twitter_twitter logo_icon 2" clip-path="url(#clip0_56_185)">
<path id="Vector" d="M4.17357 10.8755C8.70185 10.8755 11.1786 7.12389 11.1786 3.87047C11.1786 3.76392 11.1786 3.65784 11.1714 3.55224C11.6533 3.2037 12.0692 2.7722 12.3997 2.27786C11.9504 2.47696 11.4737 2.6075 10.9857 2.66521C11.4995 2.35761 11.8843 1.87345 12.0681 1.30345C11.5848 1.59021 11.056 1.79233 10.5047 1.90106C10.0392 1.40604 9.38905 1.125 8.70958 1.125C7.35767 1.125 6.24527 2.23743 6.24527 3.58929C6.24527 3.77684 6.26669 3.9638 6.30906 4.14647C4.33053 4.0473 2.48457 3.11145 1.23503 1.57418C0.585254 2.69274 0.921462 4.14234 1.99726 4.86069C1.6055 4.84909 1.22216 4.74339 0.879837 4.55254V4.58373C0.880165 5.75124 1.71062 6.766 2.85501 6.99717C2.49258 7.096 2.11222 7.11044 1.74336 7.0394C2.06508 8.03982 2.99283 8.72942 4.0435 8.74915C3.17186 9.43415 2.09452 9.80624 0.985914 9.80514C0.790025 9.80477 0.594324 9.79291 0.399841 9.76961C1.52563 10.4921 2.83591 10.8754 4.17357 10.8736" fill="white"/>
</g>
<defs>
<clipPath id="clip0_56_185">
<rect width="11.9999" height="11.9999" fill="white" transform="translate(0.399841)"/>
</clipPath>
</defs>
</svg>
