<svg width="13" height="12" viewBox="0 0 13 12" fill="none" xmlns="http://www.w3.org/2000/svg">
<g id="Vector">
<path d="M6.79952 0C5.17002 0 4.9657 0.00690688 4.32574 0.0361063C3.68711 0.0652581 3.25095 0.16667 2.86929 0.315001C2.47474 0.468334 2.14014 0.673492 1.80658 1.00705C1.47303 1.3406 1.26787 1.6752 1.11454 2.06975C0.966207 2.45139 0.864795 2.88755 0.835643 3.52618C0.806444 4.16613 0.799561 4.37046 0.799561 5.99996C0.799561 7.62943 0.806444 7.83376 0.835643 8.47372C0.864795 9.11234 0.966207 9.5485 1.11454 9.93014C1.26787 10.3247 1.47303 10.6593 1.80658 10.9929C2.14014 11.3264 2.47474 11.5316 2.86929 11.6849C3.25095 11.8332 3.68711 11.9347 4.32574 11.9638C4.9657 11.993 5.17002 11.9999 6.79952 11.9999C8.429 11.9999 8.63332 11.993 9.27328 11.9638C9.9119 11.9347 10.3481 11.8332 10.7297 11.6849C11.1242 11.5316 11.4589 11.3264 11.7924 10.9929C12.126 10.6593 12.3311 10.3247 12.4845 9.93014C12.6328 9.5485 12.7342 9.11234 12.7633 8.47372C12.7925 7.83376 12.7995 7.62943 12.7995 5.99996C12.7995 4.37046 12.7925 4.16613 12.7633 3.52618C12.7342 2.88755 12.6328 2.45139 12.4845 2.06975C12.3311 1.6752 12.126 1.3406 11.7924 1.00705C11.4589 0.673492 11.1242 0.468334 10.7297 0.315001C10.3481 0.16667 9.9119 0.0652581 9.27328 0.0361063C8.63332 0.00690688 8.429 0 6.79952 0ZM6.79952 1.08109C8.40156 1.08109 8.59133 1.08719 9.224 1.11606C9.80899 1.14276 10.1267 1.2405 10.3381 1.32264C10.6182 1.43149 10.818 1.56153 11.028 1.77147C11.238 1.98142 11.368 2.18131 11.4768 2.46135C11.559 2.67277 11.6567 2.99046 11.6834 3.57545C11.7123 4.20812 11.7184 4.3979 11.7184 5.99996C11.7184 7.602 11.7123 7.79177 11.6834 8.42444C11.6567 9.00943 11.559 9.32712 11.4768 9.53854C11.368 9.81861 11.238 10.0185 11.028 10.2284C10.818 10.4384 10.6182 10.5684 10.3381 10.6772C10.1267 10.7594 9.80899 10.8572 9.224 10.8838C8.59143 10.9127 8.40168 10.9188 6.79952 10.9188C5.19734 10.9188 5.00761 10.9127 4.37501 10.8838C3.79002 10.8572 3.47233 10.7594 3.26091 10.6772C2.98085 10.5684 2.78098 10.4384 2.57101 10.2284C2.36106 10.0185 2.23102 9.81861 2.1222 9.53854C2.04004 9.32712 1.94229 9.00943 1.91559 8.42444C1.88673 7.79177 1.88063 7.602 1.88063 5.99996C1.88063 4.3979 1.88673 4.20812 1.91559 3.57545C1.94229 2.99046 2.04004 2.67277 2.1222 2.46135C2.23102 2.18131 2.36106 1.98142 2.57101 1.77147C2.78098 1.56153 2.98085 1.43149 3.26091 1.32264C3.47233 1.2405 3.79002 1.14276 4.37501 1.11606C5.00768 1.08719 5.19746 1.08109 6.79952 1.08109Z" fill="white"/>
<path d="M6.79952 8.00011C5.69495 8.00011 4.79953 7.10469 4.79953 6.00014C4.79953 4.89556 5.69495 4.00015 6.79952 4.00015C7.90408 4.00015 8.79949 4.89556 8.79949 6.00014C8.79949 7.10469 7.90408 8.00011 6.79952 8.00011ZM6.79952 2.91908C5.09788 2.91908 3.71846 4.2985 3.71846 6.00014C3.71846 7.70176 5.09788 9.08118 6.79952 9.08118C8.50114 9.08118 9.88056 7.70176 9.88056 6.00014C9.88056 4.2985 8.50114 2.91908 6.79952 2.91908Z" fill="white"/>
<path d="M10.7223 2.79708C10.7223 3.19472 10.3999 3.51706 10.0023 3.51706C9.60466 3.51706 9.2823 3.19472 9.2823 2.79708C9.2823 2.39943 9.60466 2.0771 10.0023 2.0771C10.3999 2.0771 10.7223 2.39943 10.7223 2.79708Z" fill="white"/>
</g>
</svg>
