<svg width="13" height="12" viewBox="0 0 13 12" fill="none" xmlns="http://www.w3.org/2000/svg">
<g id="Group">
<path id="Vector" fill-rule="evenodd" clip-rule="evenodd" d="M10.6017 1.74386C9.47899 0.619897 7.98601 0.00065171 6.39533 0C3.11783 0 0.450287 2.66733 0.449007 5.94584C0.448549 6.99389 0.722364 8.01683 1.24274 8.91858L0.399139 11.9999L3.55137 11.173C4.41988 11.6467 5.39776 11.8964 6.39297 11.8968H6.39538C6.39558 11.8968 6.39524 11.8968 6.39543 11.8968C9.67259 11.8968 12.3403 9.22918 12.3417 5.9506C12.3423 4.36173 11.7243 2.86777 10.6017 1.74386ZM6.39536 10.8925H6.39335C5.50655 10.8922 4.6367 10.6539 3.87787 10.2036L3.69742 10.0965L1.82684 10.5872L2.32615 8.76343L2.20863 8.57641C1.7139 7.78953 1.45262 6.88003 1.453 5.94618C1.45407 3.22121 3.67123 1.00429 6.39736 1.00429C7.71744 1.0047 8.95837 1.51947 9.89149 2.45367C10.8246 3.38786 11.3382 4.62961 11.3377 5.95019C11.3366 8.67538 9.11946 10.8925 6.39536 10.8925Z" fill="white"/>
<path id="Vector_2" fill-rule="evenodd" clip-rule="evenodd" d="M9.10632 7.19132C8.95776 7.11695 8.22726 6.75757 8.09108 6.70794C7.95489 6.65836 7.85583 6.63357 7.7568 6.78231C7.65776 6.93102 7.37301 7.26571 7.28634 7.36489C7.19968 7.464 7.11298 7.47648 6.96444 7.40204C6.81587 7.32767 6.33713 7.1708 5.76964 6.66462C5.32792 6.27062 5.02975 5.78411 4.94305 5.63532C4.8564 5.48661 4.93383 5.40621 5.00822 5.33211C5.07506 5.26551 5.15681 5.15858 5.23111 5.07181C5.30538 4.98509 5.33014 4.92305 5.37967 4.82397C5.4292 4.72479 5.40446 4.63801 5.36729 4.56367C5.33014 4.4893 5.03301 3.75799 4.90921 3.46044C4.78857 3.17077 4.6661 3.21002 4.57488 3.20541C4.48835 3.20109 4.38917 3.2002 4.29013 3.2002C4.1911 3.2002 4.0301 3.23739 3.89394 3.3861C3.75776 3.53486 3.3739 3.89434 3.3739 4.62558C3.3739 5.35692 3.9063 6.06342 3.9806 6.16256C4.05487 6.26176 5.02828 7.76243 6.51872 8.40601C6.8732 8.55911 7.14996 8.65052 7.36572 8.71898C7.72165 8.83208 8.04555 8.8161 8.30156 8.77785C8.58703 8.7352 9.18062 8.41844 9.30442 8.07142C9.42824 7.72432 9.42824 7.4268 9.39107 7.36487C9.35395 7.30291 9.25489 7.26571 9.10632 7.19132Z" fill="white"/>
</g>
</svg>
