<svg width="11" height="15" viewBox="0 0 11 15" fill="none" xmlns="http://www.w3.org/2000/svg">
<path id="path929" d="M5.49956 0C2.46762 0 1.30013e-06 2.46861 0 5.50053C-1.90018e-06 10.8354 5.18996 14.8911 5.18996 14.8911C5.37228 15.0363 5.63074 15.0363 5.81307 14.8911C5.81307 14.8911 11.004 10.8354 11.004 5.50053C11.004 2.46861 8.53149 0 5.49956 0ZM5.49956 3.00127C6.87448 3.00127 8.00273 4.12562 8.00273 5.50053C8.00274 6.87547 6.87449 8.00273 5.49956 8.00273C4.12463 8.00273 3.00028 6.87547 3.00029 5.50053C3.0003 4.12562 4.12464 3.00127 5.49956 3.00127Z" fill="white"/>
</svg>
